<mxfile host="Electron" modified="2023-12-29T08:21:03.262Z" agent="Mozilla/5.0 (Windows NT 10.0; Win64; x64) AppleWebKit/537.36 (KHTML, like Gecko) draw.io/22.1.15 Chrome/120.0.6099.109 Electron/28.1.0 Safari/537.36" etag="eGkuaEraGx3LU1XOfHOA" version="22.1.15" type="device">
  <diagram name="Page-1" id="xCV3qbr-aHJIMHQM99jd">
    <mxGraphModel dx="303" dy="414" grid="1" gridSize="10" guides="1" tooltips="1" connect="1" arrows="1" fold="1" page="1" pageScale="1" pageWidth="850" pageHeight="1100" math="0" shadow="0">
      <root>
        <mxCell id="0" />
        <mxCell id="1" parent="0" />
        <mxCell id="cRGoLz7t1oIb9Vsy95VB-5" value="&lt;font face=&quot;Consolas&quot;&gt;static_cast&amp;lt;int&amp;gt; (a)&lt;/font&gt;" style="rounded=0;whiteSpace=wrap;html=1;strokeColor=none;fillColor=#b1ddf0;" parent="1" vertex="1">
          <mxGeometry x="170" y="150" width="140" height="20" as="geometry" />
        </mxCell>
        <mxCell id="cRGoLz7t1oIb9Vsy95VB-6" value="&lt;font face=&quot;Consolas&quot;&gt;*&lt;/font&gt;" style="rounded=0;whiteSpace=wrap;html=1;fillColor=#bac8d3;strokeColor=none;" parent="1" vertex="1">
          <mxGeometry x="310" y="150" width="20" height="20" as="geometry" />
        </mxCell>
        <mxCell id="cRGoLz7t1oIb9Vsy95VB-7" value="&lt;font face=&quot;Consolas&quot;&gt;b&lt;/font&gt;" style="rounded=0;whiteSpace=wrap;html=1;strokeColor=none;fillColor=#fad7ac;" parent="1" vertex="1">
          <mxGeometry x="330" y="150" width="20" height="20" as="geometry" />
        </mxCell>
        <mxCell id="cRGoLz7t1oIb9Vsy95VB-13" value="&lt;font face=&quot;consolas&quot; style=&quot;font-size: 9px;&quot;&gt;int&lt;/font&gt;" style="text;html=1;strokeColor=none;fillColor=#80cbf2;align=center;verticalAlign=middle;whiteSpace=wrap;rounded=0;gradientColor=none;" parent="1" vertex="1">
          <mxGeometry x="210" y="130" width="60" height="14" as="geometry" />
        </mxCell>
        <mxCell id="cRGoLz7t1oIb9Vsy95VB-24" value="" style="edgeStyle=orthogonalEdgeStyle;rounded=0;orthogonalLoop=1;jettySize=auto;html=1;" parent="1" source="cRGoLz7t1oIb9Vsy95VB-15" target="cRGoLz7t1oIb9Vsy95VB-23" edge="1">
          <mxGeometry relative="1" as="geometry" />
        </mxCell>
        <mxCell id="cRGoLz7t1oIb9Vsy95VB-15" value="&lt;font style=&quot;font-size: 10px;&quot;&gt;类型不一致&lt;br&gt;不可计算&lt;/font&gt;" style="text;html=1;strokeColor=none;fillColor=#a1fcd0;align=center;verticalAlign=middle;whiteSpace=wrap;rounded=0;" parent="1" vertex="1">
          <mxGeometry x="90" y="140" width="70" height="30" as="geometry" />
        </mxCell>
        <mxCell id="cRGoLz7t1oIb9Vsy95VB-42" style="edgeStyle=orthogonalEdgeStyle;rounded=0;orthogonalLoop=1;jettySize=auto;html=1;entryX=0.5;entryY=0;entryDx=0;entryDy=0;" parent="1" source="cRGoLz7t1oIb9Vsy95VB-23" target="cRGoLz7t1oIb9Vsy95VB-28" edge="1">
          <mxGeometry relative="1" as="geometry" />
        </mxCell>
        <mxCell id="cRGoLz7t1oIb9Vsy95VB-23" value="&lt;font style=&quot;font-size: 10px;&quot;&gt;隐式转换后&lt;br&gt;可计算&lt;/font&gt;" style="text;html=1;strokeColor=none;fillColor=#ffb5a8;align=center;verticalAlign=middle;whiteSpace=wrap;rounded=0;" parent="1" vertex="1">
          <mxGeometry x="90" y="190" width="70" height="30" as="geometry" />
        </mxCell>
        <mxCell id="cRGoLz7t1oIb9Vsy95VB-28" value="&lt;span style=&quot;font-size: 10px;&quot;&gt;计算结果仍为double 型&lt;br&gt;未达到目的&lt;/span&gt;" style="text;html=1;strokeColor=none;fillColor=#ffb5a8;align=center;verticalAlign=middle;whiteSpace=wrap;rounded=0;" parent="1" vertex="1">
          <mxGeometry x="90" y="240" width="70" height="40" as="geometry" />
        </mxCell>
        <mxCell id="qj7SIMM-Hwj7FxwneScj-4" value="&lt;font face=&quot;consolas&quot; style=&quot;font-size: 9px;&quot;&gt;double&lt;/font&gt;" style="text;html=1;strokeColor=none;fillColor=#ffc37b;align=center;verticalAlign=middle;whiteSpace=wrap;rounded=0;gradientColor=none;horizontal=1;labelPosition=center;verticalLabelPosition=middle;" parent="1" vertex="1">
          <mxGeometry x="210" y="80" width="60" height="14" as="geometry" />
        </mxCell>
        <mxCell id="qj7SIMM-Hwj7FxwneScj-5" value="&lt;font face=&quot;Consolas&quot;&gt;static_cast&amp;lt;int&amp;gt; (a)&lt;/font&gt;" style="rounded=0;whiteSpace=wrap;html=1;strokeColor=none;fillColor=#fad7ac;" parent="1" vertex="1">
          <mxGeometry x="170" y="100" width="140" height="20" as="geometry" />
        </mxCell>
        <mxCell id="qj7SIMM-Hwj7FxwneScj-8" style="edgeStyle=orthogonalEdgeStyle;rounded=0;orthogonalLoop=1;jettySize=auto;html=1;entryX=0.5;entryY=0;entryDx=0;entryDy=0;" parent="1" source="qj7SIMM-Hwj7FxwneScj-6" target="cRGoLz7t1oIb9Vsy95VB-15" edge="1">
          <mxGeometry relative="1" as="geometry" />
        </mxCell>
        <mxCell id="qj7SIMM-Hwj7FxwneScj-6" value="&lt;font style=&quot;font-size: 10px;&quot;&gt;显式类型转换到 int&lt;br&gt;&lt;/font&gt;" style="text;html=1;strokeColor=none;fillColor=#a1fcd0;align=center;verticalAlign=middle;whiteSpace=wrap;rounded=0;" parent="1" vertex="1">
          <mxGeometry x="90" y="90" width="70" height="30" as="geometry" />
        </mxCell>
        <mxCell id="qj7SIMM-Hwj7FxwneScj-9" value="&lt;font face=&quot;Consolas&quot;&gt;static_cast&amp;lt;int&amp;gt; (a)&lt;/font&gt;" style="rounded=0;whiteSpace=wrap;html=1;strokeColor=none;fillColor=#fad7ac;" parent="1" vertex="1">
          <mxGeometry x="170" y="200" width="140" height="20" as="geometry" />
        </mxCell>
        <mxCell id="qj7SIMM-Hwj7FxwneScj-11" value="&lt;font face=&quot;Consolas&quot;&gt;*&lt;/font&gt;" style="rounded=0;whiteSpace=wrap;html=1;fillColor=#bac8d3;strokeColor=none;" parent="1" vertex="1">
          <mxGeometry x="310" y="200" width="20" height="20" as="geometry" />
        </mxCell>
        <mxCell id="qj7SIMM-Hwj7FxwneScj-13" value="&lt;font face=&quot;Consolas&quot;&gt;b&lt;/font&gt;" style="rounded=0;whiteSpace=wrap;html=1;strokeColor=none;fillColor=#fad7ac;" parent="1" vertex="1">
          <mxGeometry x="330" y="200" width="20" height="20" as="geometry" />
        </mxCell>
        <mxCell id="qj7SIMM-Hwj7FxwneScj-14" value="&lt;font face=&quot;Consolas&quot;&gt;static_cast&amp;lt;int&amp;gt; (a) *&amp;nbsp;b&lt;/font&gt;" style="rounded=0;whiteSpace=wrap;html=1;strokeColor=none;fillColor=#fad7ac;" parent="1" vertex="1">
          <mxGeometry x="170" y="250" width="180" height="20" as="geometry" />
        </mxCell>
        <mxCell id="lJHYJgqhCRLEeUNveAZk-2" value="&lt;font face=&quot;consolas&quot; style=&quot;font-size: 9px;&quot;&gt;double&lt;/font&gt;" style="text;html=1;strokeColor=none;fillColor=#ffc37b;align=center;verticalAlign=middle;whiteSpace=wrap;rounded=0;gradientColor=none;horizontal=1;labelPosition=center;verticalLabelPosition=middle;" vertex="1" parent="1">
          <mxGeometry x="210" y="180" width="60" height="14" as="geometry" />
        </mxCell>
        <mxCell id="lJHYJgqhCRLEeUNveAZk-3" value="&lt;font face=&quot;consolas&quot; style=&quot;font-size: 9px;&quot;&gt;double&lt;/font&gt;" style="text;html=1;strokeColor=none;fillColor=#ffc37b;align=center;verticalAlign=middle;whiteSpace=wrap;rounded=0;gradientColor=none;horizontal=1;labelPosition=center;verticalLabelPosition=middle;" vertex="1" parent="1">
          <mxGeometry x="220" y="230" width="60" height="14" as="geometry" />
        </mxCell>
        <mxCell id="lJHYJgqhCRLEeUNveAZk-4" value="&lt;font face=&quot;consolas&quot; style=&quot;font-size: 9px;&quot;&gt;double&lt;/font&gt;" style="text;html=1;strokeColor=none;fillColor=#ffc37b;align=center;verticalAlign=middle;whiteSpace=wrap;rounded=0;gradientColor=none;horizontal=1;labelPosition=center;verticalLabelPosition=middle;" vertex="1" parent="1">
          <mxGeometry x="325" y="180" width="30" height="14" as="geometry" />
        </mxCell>
        <mxCell id="lJHYJgqhCRLEeUNveAZk-5" value="&lt;font face=&quot;consolas&quot; style=&quot;font-size: 9px;&quot;&gt;double&lt;/font&gt;" style="text;html=1;strokeColor=none;fillColor=#ffc37b;align=center;verticalAlign=middle;whiteSpace=wrap;rounded=0;gradientColor=none;horizontal=1;labelPosition=center;verticalLabelPosition=middle;" vertex="1" parent="1">
          <mxGeometry x="325" y="130" width="30" height="14" as="geometry" />
        </mxCell>
      </root>
    </mxGraphModel>
  </diagram>
</mxfile>
